<svg xmlns="http://www.w3.org/2000/svg" width="36" height="36" fill="#f01f4b">
                                        <path fill="currentColor" d="M11.39 27h7.818c4.06 0 6.498-2.043 6.498-5.391 0-2.48-1.712-4.311-4.284-4.577v-.224c1.872-.316 3.335-2.093 3.335-4.086 0-2.925-2.149-4.748-5.72-4.748H11.39V27Zm2.954-10.969v-5.55h4.005c2.189 0 3.47 1.028 3.47 2.783 0 1.804-1.36 2.767-3.97 2.767h-3.505Zm0 8.465v-6.131h4.1c2.78 0 4.245 1.041 4.245 3.033 0 2.015-1.41 3.098-4.075 3.098h-4.27Z"></path>
                                        <path fill="#f01f4b" d="M0 9a9 9 0 0 1 9-9h18a9 9 0 0 1 9 9v18a9 9 0 0 1-9 9H9a9 9 0 0 1-9-9V9Zm9-6.75A6.75 6.75 0 0 0 2.25 9v18A6.75 6.75 0 0 0 9 33.75h18A6.75 6.75 0 0 0 33.75 27V9A6.75 6.75 0 0 0 27 2.25H9Z"></path>
                                    </svg>